<mxfile host="drawio-plugin" modified="2023-05-03T21:38:00.923Z" agent="5.0 (X11; Linux x86_64) AppleWebKit/537.36 (KHTML, like Gecko) Chrome/104.0.5112.102 Safari/537.36" etag="mmYSHstZr85HKreSJozp" version="20.5.3" type="embed" pages="4"><diagram id="C5RBs43oDa-KdzZeNtuy" name="Core"><mxGraphModel dx="870" dy="727" grid="1" gridSize="10" guides="1" tooltips="1" connect="1" arrows="1" fold="1" page="1" pageScale="1" pageWidth="1169" pageHeight="1654" math="0" shadow="0"><root><mxCell id="WIyWlLk6GJQsqaUBKTNV-0"/><mxCell id="WIyWlLk6GJQsqaUBKTNV-1" parent="WIyWlLk6GJQsqaUBKTNV-0"/><mxCell id="RQRfcNfFL2eNt2i61ZeB-0" value="CompactOctree" style="swimlane;fontStyle=1;align=center;verticalAlign=top;childLayout=stackLayout;horizontal=1;startSize=26;horizontalStack=0;resizeParent=1;resizeParentMax=0;resizeLast=0;collapsible=1;marginBottom=0;whiteSpace=wrap;html=1;" parent="WIyWlLk6GJQsqaUBKTNV-1" vertex="1"><mxGeometry x="40" y="400" width="350" height="370" as="geometry"><mxRectangle x="30" y="500" width="130" height="30" as="alternateBounds"/></mxGeometry></mxCell><mxCell id="RQRfcNfFL2eNt2i61ZeB-1" value="- root&amp;nbsp;&lt;span style=&quot;background-color: initial;&quot;&gt;:OctreeNode*&lt;br&gt;&amp;nbsp;&lt;br&gt;&lt;/span&gt;" style="text;strokeColor=none;fillColor=none;align=left;verticalAlign=top;spacingLeft=4;spacingRight=4;overflow=hidden;rotatable=0;points=[[0,0.5],[1,0.5]];portConstraint=eastwest;whiteSpace=wrap;html=1;" parent="RQRfcNfFL2eNt2i61ZeB-0" vertex="1"><mxGeometry y="26" width="350" height="24" as="geometry"/></mxCell><mxCell id="RQRfcNfFL2eNt2i61ZeB-27" value="- node_count : size_t&lt;span style=&quot;background-color: initial;&quot;&gt;&amp;nbsp;&lt;br&gt;&lt;/span&gt;" style="text;strokeColor=none;fillColor=none;align=left;verticalAlign=top;spacingLeft=4;spacingRight=4;overflow=hidden;rotatable=0;points=[[0,0.5],[1,0.5]];portConstraint=eastwest;whiteSpace=wrap;html=1;" parent="RQRfcNfFL2eNt2i61ZeB-0" vertex="1"><mxGeometry y="50" width="350" height="24" as="geometry"/></mxCell><mxCell id="RQRfcNfFL2eNt2i61ZeB-2" value="" style="line;strokeWidth=1;fillColor=none;align=left;verticalAlign=middle;spacingTop=-1;spacingLeft=3;spacingRight=3;rotatable=0;labelPosition=right;points=[];portConstraint=eastwest;strokeColor=inherit;" parent="RQRfcNfFL2eNt2i61ZeB-0" vertex="1"><mxGeometry y="74" width="350" height="22" as="geometry"/></mxCell><mxCell id="RQRfcNfFL2eNt2i61ZeB-49" value="+ ~CompactOctree() :&amp;nbsp;void&amp;nbsp;" style="text;strokeColor=none;fillColor=none;align=left;verticalAlign=top;spacingLeft=4;spacingRight=4;overflow=hidden;rotatable=0;points=[[0,0.5],[1,0.5]];portConstraint=eastwest;whiteSpace=wrap;html=1;" parent="RQRfcNfFL2eNt2i61ZeB-0" vertex="1"><mxGeometry y="96" width="350" height="34" as="geometry"/></mxCell><mxCell id="RQRfcNfFL2eNt2i61ZeB-50" value="+ CompactOctree(copy:CompactOctree) :&amp;nbsp;void&amp;nbsp;" style="text;strokeColor=none;fillColor=none;align=left;verticalAlign=top;spacingLeft=4;spacingRight=4;overflow=hidden;rotatable=0;points=[[0,0.5],[1,0.5]];portConstraint=eastwest;whiteSpace=wrap;html=1;" parent="RQRfcNfFL2eNt2i61ZeB-0" vertex="1"><mxGeometry y="130" width="350" height="30" as="geometry"/></mxCell><mxCell id="RQRfcNfFL2eNt2i61ZeB-48" value="+&amp;nbsp;CompactOctree&lt;span style=&quot;background-color: initial;&quot;&gt;() :&amp;nbsp;&lt;/span&gt;void&amp;nbsp;" style="text;strokeColor=none;fillColor=none;align=left;verticalAlign=top;spacingLeft=4;spacingRight=4;overflow=hidden;rotatable=0;points=[[0,0.5],[1,0.5]];portConstraint=eastwest;whiteSpace=wrap;html=1;" parent="RQRfcNfFL2eNt2i61ZeB-0" vertex="1"><mxGeometry y="160" width="350" height="30" as="geometry"/></mxCell><mxCell id="RQRfcNfFL2eNt2i61ZeB-42" value="+ trace&amp;nbsp;&lt;span style=&quot;background-color: initial;&quot;&gt;() :&amp;nbsp;&lt;/span&gt;void&amp;nbsp;" style="text;strokeColor=none;fillColor=none;align=left;verticalAlign=top;spacingLeft=4;spacingRight=4;overflow=hidden;rotatable=0;points=[[0,0.5],[1,0.5]];portConstraint=eastwest;whiteSpace=wrap;html=1;" parent="RQRfcNfFL2eNt2i61ZeB-0" vertex="1"><mxGeometry y="190" width="350" height="30" as="geometry"/></mxCell><mxCell id="RQRfcNfFL2eNt2i61ZeB-43" value="+&amp;nbsp;intersection&lt;span style=&quot;background-color: initial;&quot;&gt;(tree :CompactOctree&amp;nbsp;) :&amp;nbsp;&lt;/span&gt;&lt;span style=&quot;background-color: initial;&quot;&gt;void&amp;nbsp;&lt;/span&gt;" style="text;strokeColor=none;fillColor=none;align=left;verticalAlign=top;spacingLeft=4;spacingRight=4;overflow=hidden;rotatable=0;points=[[0,0.5],[1,0.5]];portConstraint=eastwest;whiteSpace=wrap;html=1;" parent="RQRfcNfFL2eNt2i61ZeB-0" vertex="1"><mxGeometry y="220" width="350" height="30" as="geometry"/></mxCell><mxCell id="RQRfcNfFL2eNt2i61ZeB-3" value="+&amp;nbsp;&lt;span style=&quot;background-color: initial;&quot;&gt;insert(OctreeNode* node, voxel : glm::vec3 , value : Voxel)&lt;br&gt;&amp;nbsp;:&amp;nbsp;&lt;/span&gt;void&amp;nbsp;" style="text;strokeColor=none;fillColor=none;align=left;verticalAlign=top;spacingLeft=4;spacingRight=4;overflow=hidden;rotatable=0;points=[[0,0.5],[1,0.5]];portConstraint=eastwest;whiteSpace=wrap;html=1;" parent="RQRfcNfFL2eNt2i61ZeB-0" vertex="1"><mxGeometry y="250" width="350" height="50" as="geometry"/></mxCell><mxCell id="RQRfcNfFL2eNt2i61ZeB-36" value="&amp;nbsp;+&amp;nbsp;query&amp;nbsp;(OctreeNode* node, voxel : glm::vec3 , value : Voxel)&lt;br style=&quot;border-color: var(--border-color);&quot;&gt;&amp;nbsp;:&amp;nbsp;void&amp;nbsp;" style="text;strokeColor=none;fillColor=none;align=left;verticalAlign=top;spacingLeft=4;spacingRight=4;overflow=hidden;rotatable=0;points=[[0,0.5],[1,0.5]];portConstraint=eastwest;whiteSpace=wrap;html=1;" parent="RQRfcNfFL2eNt2i61ZeB-0" vertex="1"><mxGeometry y="300" width="350" height="40" as="geometry"/></mxCell><mxCell id="RQRfcNfFL2eNt2i61ZeB-41" value="&amp;nbsp;-&amp;nbsp;delete_node&amp;nbsp;&lt;span style=&quot;background-color: initial;&quot;&gt;(OctreeNode node)&lt;/span&gt;&amp;nbsp;:&amp;nbsp;void&amp;nbsp;&lt;span style=&quot;background-color: initial;&quot;&gt;&lt;br&gt;&lt;/span&gt;" style="text;strokeColor=none;fillColor=none;align=left;verticalAlign=top;spacingLeft=4;spacingRight=4;overflow=hidden;rotatable=0;points=[[0,0.5],[1,0.5]];portConstraint=eastwest;whiteSpace=wrap;html=1;" parent="RQRfcNfFL2eNt2i61ZeB-0" vertex="1"><mxGeometry y="340" width="350" height="30" as="geometry"/></mxCell><mxCell id="RQRfcNfFL2eNt2i61ZeB-8" value="Voxel" style="swimlane;fontStyle=0;childLayout=stackLayout;horizontal=1;startSize=26;fillColor=none;horizontalStack=0;resizeParent=1;resizeParentMax=0;resizeLast=0;collapsible=1;marginBottom=0;whiteSpace=wrap;html=1;" parent="WIyWlLk6GJQsqaUBKTNV-1" vertex="1"><mxGeometry x="650" y="598" width="170" height="52" as="geometry"><mxRectangle x="80" y="610" width="70" height="30" as="alternateBounds"/></mxGeometry></mxCell><mxCell id="RQRfcNfFL2eNt2i61ZeB-9" value="+ color : glm::vec3" style="text;strokeColor=none;fillColor=none;align=left;verticalAlign=top;spacingLeft=4;spacingRight=4;overflow=hidden;rotatable=0;points=[[0,0.5],[1,0.5]];portConstraint=eastwest;whiteSpace=wrap;html=1;" parent="RQRfcNfFL2eNt2i61ZeB-8" vertex="1"><mxGeometry y="26" width="170" height="26" as="geometry"/></mxCell><mxCell id="RQRfcNfFL2eNt2i61ZeB-12" value="OctreeNode" style="swimlane;fontStyle=0;childLayout=stackLayout;horizontal=1;startSize=26;fillColor=none;horizontalStack=0;resizeParent=1;resizeParentMax=0;resizeLast=0;collapsible=1;marginBottom=0;whiteSpace=wrap;html=1;" parent="WIyWlLk6GJQsqaUBKTNV-1" vertex="1"><mxGeometry x="650" y="400" width="170" height="104" as="geometry"><mxRectangle x="640" y="400" width="110" height="30" as="alternateBounds"/></mxGeometry></mxCell><mxCell id="RQRfcNfFL2eNt2i61ZeB-13" value="+&amp;nbsp;&amp;nbsp;children[8]: OctreeNode*" style="text;strokeColor=none;fillColor=none;align=left;verticalAlign=top;spacingLeft=4;spacingRight=4;overflow=hidden;rotatable=0;points=[[0,0.5],[1,0.5]];portConstraint=eastwest;whiteSpace=wrap;html=1;" parent="RQRfcNfFL2eNt2i61ZeB-12" vertex="1"><mxGeometry y="26" width="170" height="26" as="geometry"/></mxCell><mxCell id="RQRfcNfFL2eNt2i61ZeB-14" value="+ is_leaf : bool&amp;nbsp;" style="text;strokeColor=none;fillColor=none;align=left;verticalAlign=top;spacingLeft=4;spacingRight=4;overflow=hidden;rotatable=0;points=[[0,0.5],[1,0.5]];portConstraint=eastwest;whiteSpace=wrap;html=1;" parent="RQRfcNfFL2eNt2i61ZeB-12" vertex="1"><mxGeometry y="52" width="170" height="26" as="geometry"/></mxCell><mxCell id="RQRfcNfFL2eNt2i61ZeB-15" value="+ voxel: Voxel" style="text;strokeColor=none;fillColor=none;align=left;verticalAlign=top;spacingLeft=4;spacingRight=4;overflow=hidden;rotatable=0;points=[[0,0.5],[1,0.5]];portConstraint=eastwest;whiteSpace=wrap;html=1;" parent="RQRfcNfFL2eNt2i61ZeB-12" vertex="1"><mxGeometry y="78" width="170" height="26" as="geometry"/></mxCell><mxCell id="RQRfcNfFL2eNt2i61ZeB-28" value="Object" style="swimlane;fontStyle=1;align=center;verticalAlign=top;childLayout=stackLayout;horizontal=1;startSize=26;horizontalStack=0;resizeParent=1;resizeParentMax=0;resizeLast=0;collapsible=1;marginBottom=0;whiteSpace=wrap;html=1;" parent="WIyWlLk6GJQsqaUBKTNV-1" vertex="1"><mxGeometry x="90" y="70" width="250" height="254" as="geometry"><mxRectangle x="40" y="50" width="80" height="30" as="alternateBounds"/></mxGeometry></mxCell><mxCell id="RQRfcNfFL2eNt2i61ZeB-29" value="- name : std::String" style="text;strokeColor=none;fillColor=none;align=left;verticalAlign=top;spacingLeft=4;spacingRight=4;overflow=hidden;rotatable=0;points=[[0,0.5],[1,0.5]];portConstraint=eastwest;whiteSpace=wrap;html=1;" parent="RQRfcNfFL2eNt2i61ZeB-28" vertex="1"><mxGeometry y="26" width="250" height="24" as="geometry"/></mxCell><mxCell id="RQRfcNfFL2eNt2i61ZeB-44" value="- position : vec3" style="text;strokeColor=none;fillColor=none;align=left;verticalAlign=top;spacingLeft=4;spacingRight=4;overflow=hidden;rotatable=0;points=[[0,0.5],[1,0.5]];portConstraint=eastwest;whiteSpace=wrap;html=1;" parent="RQRfcNfFL2eNt2i61ZeB-28" vertex="1"><mxGeometry y="50" width="250" height="20" as="geometry"/></mxCell><mxCell id="RQRfcNfFL2eNt2i61ZeB-45" value="&lt;span style=&quot;color: rgb(0, 0, 0); font-family: Helvetica; font-size: 12px; font-style: normal; font-variant-ligatures: normal; font-variant-caps: normal; font-weight: 400; letter-spacing: normal; orphans: 2; text-align: left; text-indent: 0px; text-transform: none; widows: 2; word-spacing: 0px; -webkit-text-stroke-width: 0px; background-color: rgb(251, 251, 251); text-decoration-thickness: initial; text-decoration-style: initial; text-decoration-color: initial; float: none; display: inline !important;&quot;&gt;&amp;nbsp;- angle: vec3&lt;/span&gt;" style="text;whiteSpace=wrap;html=1;" parent="RQRfcNfFL2eNt2i61ZeB-28" vertex="1"><mxGeometry y="70" width="250" height="20" as="geometry"/></mxCell><mxCell id="RQRfcNfFL2eNt2i61ZeB-30" value="" style="line;strokeWidth=1;fillColor=none;align=left;verticalAlign=middle;spacingTop=-1;spacingLeft=3;spacingRight=3;rotatable=0;labelPosition=right;points=[];portConstraint=eastwest;strokeColor=inherit;" parent="RQRfcNfFL2eNt2i61ZeB-28" vertex="1"><mxGeometry y="90" width="250" height="8" as="geometry"/></mxCell><mxCell id="RQRfcNfFL2eNt2i61ZeB-31" value="+ set_angle(pos:vec3 ): void" style="text;strokeColor=none;fillColor=none;align=left;verticalAlign=top;spacingLeft=4;spacingRight=4;overflow=hidden;rotatable=0;points=[[0,0.5],[1,0.5]];portConstraint=eastwest;whiteSpace=wrap;html=1;" parent="RQRfcNfFL2eNt2i61ZeB-28" vertex="1"><mxGeometry y="98" width="250" height="26" as="geometry"/></mxCell><mxCell id="RQRfcNfFL2eNt2i61ZeB-53" value="+ get_angle (): vec3" style="text;strokeColor=none;fillColor=none;align=left;verticalAlign=top;spacingLeft=4;spacingRight=4;overflow=hidden;rotatable=0;points=[[0,0.5],[1,0.5]];portConstraint=eastwest;whiteSpace=wrap;html=1;" parent="RQRfcNfFL2eNt2i61ZeB-28" vertex="1"><mxGeometry y="124" width="250" height="26" as="geometry"/></mxCell><mxCell id="RQRfcNfFL2eNt2i61ZeB-64" value="+ set_position(pos:vec3 ): void" style="text;strokeColor=none;fillColor=none;align=left;verticalAlign=top;spacingLeft=4;spacingRight=4;overflow=hidden;rotatable=0;points=[[0,0.5],[1,0.5]];portConstraint=eastwest;whiteSpace=wrap;html=1;" parent="RQRfcNfFL2eNt2i61ZeB-28" vertex="1"><mxGeometry y="150" width="250" height="26" as="geometry"/></mxCell><mxCell id="RQRfcNfFL2eNt2i61ZeB-65" value="+ get_position(): vec3" style="text;strokeColor=none;fillColor=none;align=left;verticalAlign=top;spacingLeft=4;spacingRight=4;overflow=hidden;rotatable=0;points=[[0,0.5],[1,0.5]];portConstraint=eastwest;whiteSpace=wrap;html=1;" parent="RQRfcNfFL2eNt2i61ZeB-28" vertex="1"><mxGeometry y="176" width="250" height="26" as="geometry"/></mxCell><mxCell id="RQRfcNfFL2eNt2i61ZeB-66" value="+ set_name(pos:String ): void" style="text;strokeColor=none;fillColor=none;align=left;verticalAlign=top;spacingLeft=4;spacingRight=4;overflow=hidden;rotatable=0;points=[[0,0.5],[1,0.5]];portConstraint=eastwest;whiteSpace=wrap;html=1;" parent="RQRfcNfFL2eNt2i61ZeB-28" vertex="1"><mxGeometry y="202" width="250" height="26" as="geometry"/></mxCell><mxCell id="RQRfcNfFL2eNt2i61ZeB-67" value="+ get_angle(): vec3" style="text;strokeColor=none;fillColor=none;align=left;verticalAlign=top;spacingLeft=4;spacingRight=4;overflow=hidden;rotatable=0;points=[[0,0.5],[1,0.5]];portConstraint=eastwest;whiteSpace=wrap;html=1;" parent="RQRfcNfFL2eNt2i61ZeB-28" vertex="1"><mxGeometry y="228" width="250" height="26" as="geometry"/></mxCell><mxCell id="RQRfcNfFL2eNt2i61ZeB-34" value="" style="endArrow=open;endFill=1;endSize=12;html=1;rounded=0;exitX=0.5;exitY=1;exitDx=0;exitDy=0;entryX=0.5;entryY=0;entryDx=0;entryDy=0;" parent="WIyWlLk6GJQsqaUBKTNV-1" source="RQRfcNfFL2eNt2i61ZeB-12" target="RQRfcNfFL2eNt2i61ZeB-8" edge="1"><mxGeometry width="160" relative="1" as="geometry"><mxPoint x="200" y="410" as="sourcePoint"/><mxPoint x="450" y="490" as="targetPoint"/></mxGeometry></mxCell><mxCell id="RQRfcNfFL2eNt2i61ZeB-51" value="Extends" style="endArrow=block;endSize=16;endFill=0;html=1;rounded=0;exitX=0.5;exitY=0;exitDx=0;exitDy=0;entryX=0.5;entryY=1;entryDx=0;entryDy=0;" parent="WIyWlLk6GJQsqaUBKTNV-1" source="RQRfcNfFL2eNt2i61ZeB-0" target="RQRfcNfFL2eNt2i61ZeB-28" edge="1"><mxGeometry x="-0.0062" width="160" relative="1" as="geometry"><mxPoint x="230" y="200" as="sourcePoint"/><mxPoint x="250" y="80" as="targetPoint"/><mxPoint as="offset"/></mxGeometry></mxCell><mxCell id="RQRfcNfFL2eNt2i61ZeB-55" value="" style="endArrow=open;endFill=1;endSize=12;html=1;rounded=0;exitX=1;exitY=0.5;exitDx=0;exitDy=0;edgeStyle=orthogonalEdgeStyle;" parent="WIyWlLk6GJQsqaUBKTNV-1" source="RQRfcNfFL2eNt2i61ZeB-27" edge="1"><mxGeometry width="160" relative="1" as="geometry"><mxPoint x="400" y="320" as="sourcePoint"/><mxPoint x="650" y="462" as="targetPoint"/></mxGeometry></mxCell><mxCell id="RQRfcNfFL2eNt2i61ZeB-60" value="Camera" style="swimlane;fontStyle=1;align=center;verticalAlign=top;childLayout=stackLayout;horizontal=1;startSize=26;horizontalStack=0;resizeParent=1;resizeParentMax=0;resizeLast=0;collapsible=1;marginBottom=0;whiteSpace=wrap;html=1;" parent="WIyWlLk6GJQsqaUBKTNV-1" vertex="1"><mxGeometry x="640" y="70" width="160" height="86" as="geometry"/></mxCell><mxCell id="RQRfcNfFL2eNt2i61ZeB-61" value="+ field: type" style="text;strokeColor=none;fillColor=none;align=left;verticalAlign=top;spacingLeft=4;spacingRight=4;overflow=hidden;rotatable=0;points=[[0,0.5],[1,0.5]];portConstraint=eastwest;whiteSpace=wrap;html=1;" parent="RQRfcNfFL2eNt2i61ZeB-60" vertex="1"><mxGeometry y="26" width="160" height="26" as="geometry"/></mxCell><mxCell id="RQRfcNfFL2eNt2i61ZeB-62" value="" style="line;strokeWidth=1;fillColor=none;align=left;verticalAlign=middle;spacingTop=-1;spacingLeft=3;spacingRight=3;rotatable=0;labelPosition=right;points=[];portConstraint=eastwest;strokeColor=inherit;" parent="RQRfcNfFL2eNt2i61ZeB-60" vertex="1"><mxGeometry y="52" width="160" height="8" as="geometry"/></mxCell><mxCell id="RQRfcNfFL2eNt2i61ZeB-63" value="+ method(type): type" style="text;strokeColor=none;fillColor=none;align=left;verticalAlign=top;spacingLeft=4;spacingRight=4;overflow=hidden;rotatable=0;points=[[0,0.5],[1,0.5]];portConstraint=eastwest;whiteSpace=wrap;html=1;" parent="RQRfcNfFL2eNt2i61ZeB-60" vertex="1"><mxGeometry y="60" width="160" height="26" as="geometry"/></mxCell><mxCell id="gykuNFVWqO9cafGRQmXF-1" value="" style="endArrow=open;endFill=1;endSize=12;html=1;rounded=0;entryX=0;entryY=0.115;entryDx=0;entryDy=0;entryPerimeter=0;edgeStyle=orthogonalEdgeStyle;exitX=1.003;exitY=0.233;exitDx=0;exitDy=0;exitPerimeter=0;" parent="WIyWlLk6GJQsqaUBKTNV-1" source="RQRfcNfFL2eNt2i61ZeB-43" target="RQRfcNfFL2eNt2i61ZeB-9" edge="1"><mxGeometry width="160" relative="1" as="geometry"><mxPoint x="460" y="630" as="sourcePoint"/><mxPoint x="670" y="520" as="targetPoint"/></mxGeometry></mxCell></root></mxGraphModel></diagram><diagram id="HDSDiKE1rcTp8kDMMtQG" name="Function"><mxGraphModel dx="635" dy="727" grid="1" gridSize="10" guides="1" tooltips="1" connect="1" arrows="1" fold="1" page="1" pageScale="1" pageWidth="2336" pageHeight="1654" math="0" shadow="0"><root><mxCell id="0"/><mxCell id="1" parent="0"/><mxCell id="fjq0LEgCg1GbYbQw6aEK-2" value="&lt;p style=&quot;margin: 0px ; margin-top: 4px ; text-align: center&quot;&gt;&lt;b&gt;Scene&lt;/b&gt;&lt;/p&gt;&lt;hr size=&quot;1&quot;&gt;&lt;p style=&quot;margin: 0px ; margin-left: 4px&quot;&gt;- camera_ : ICamera&amp;amp;&lt;/p&gt;&lt;p style=&quot;margin: 0px ; margin-left: 4px&quot;&gt;- fileManager_ : IFileManager&amp;amp;&lt;br&gt;&lt;/p&gt;&lt;p style=&quot;margin: 0px ; margin-left: 4px&quot;&gt;&lt;span&gt;- pngConverter_: IImageProcessor*&lt;/span&gt;&lt;br&gt;&lt;/p&gt;&lt;hr size=&quot;1&quot;&gt;&lt;p style=&quot;margin: 0px ; margin-left: 4px&quot;&gt;+ preview(): IImage&lt;/p&gt;&lt;p style=&quot;margin: 0px ; margin-left: 4px&quot;&gt;+ generate(): void&lt;/p&gt;" style="verticalAlign=top;align=left;overflow=fill;fontSize=12;fontFamily=Helvetica;html=1;whiteSpace=wrap;" parent="1" vertex="1"><mxGeometry x="321" y="200" width="240" height="120" as="geometry"/></mxCell><mxCell id="NQ6d6jJCXE89TmS6K0ox-2" value="&lt;p style=&quot;margin:0px;margin-top:4px;text-align:center;&quot;&gt;&lt;i&gt;&amp;lt;&amp;lt;Interface&amp;gt;&amp;gt;&lt;/i&gt;&lt;/p&gt;&lt;p style=&quot;margin:0px;margin-top:4px;text-align:center;&quot;&gt;&lt;i&gt;&lt;b&gt;ICamera&lt;/b&gt;&lt;/i&gt;&lt;/p&gt;" style="verticalAlign=top;align=left;overflow=fill;fontSize=12;fontFamily=Helvetica;html=1;whiteSpace=wrap;" parent="1" vertex="1"><mxGeometry x="361" y="80" width="160" height="40" as="geometry"/></mxCell><mxCell id="NQ6d6jJCXE89TmS6K0ox-4" value="" style="endArrow=open;endFill=1;endSize=12;html=1;rounded=0;entryX=0.5;entryY=1;entryDx=0;entryDy=0;exitX=0.5;exitY=0;exitDx=0;exitDy=0;edgeStyle=orthogonalEdgeStyle;" parent="1" source="fjq0LEgCg1GbYbQw6aEK-2" target="NQ6d6jJCXE89TmS6K0ox-2" edge="1"><mxGeometry width="160" relative="1" as="geometry"><mxPoint x="601" y="400" as="sourcePoint"/><mxPoint x="761" y="400" as="targetPoint"/></mxGeometry></mxCell><mxCell id="WR3VaRAiDl1n3JYjEDmc-1" value="&lt;p style=&quot;margin: 0px ; margin-top: 4px ; text-align: center&quot;&gt;&lt;b&gt;PngCreator&lt;/b&gt;&lt;/p&gt;&lt;hr size=&quot;1&quot;&gt;&lt;p style=&quot;margin: 0px ; margin-left: 4px&quot;&gt;+ convert(image: IImage*): IImage*&lt;/p&gt;" style="verticalAlign=top;align=left;overflow=fill;fontSize=12;fontFamily=Helvetica;html=1;whiteSpace=wrap;" parent="1" vertex="1"><mxGeometry x="721" y="200" width="240" height="120" as="geometry"/></mxCell><mxCell id="WR3VaRAiDl1n3JYjEDmc-2" value="&lt;p style=&quot;margin: 0px ; margin-top: 4px ; text-align: center&quot;&gt;&lt;i&gt;&amp;lt;&amp;lt;Interface&amp;gt;&amp;gt;&lt;/i&gt;&lt;/p&gt;&lt;p style=&quot;margin: 0px ; margin-top: 4px ; text-align: center&quot;&gt;&lt;i&gt;&lt;b&gt;IImageConverter&lt;/b&gt;&lt;/i&gt;&lt;/p&gt;" style="verticalAlign=top;align=left;overflow=fill;fontSize=12;fontFamily=Helvetica;html=1;whiteSpace=wrap;" parent="1" vertex="1"><mxGeometry x="761" y="80" width="160" height="40" as="geometry"/></mxCell><mxCell id="eiTDV5djJZwSkgyzMu8H-1" value="" style="endArrow=block;dashed=1;endFill=0;endSize=12;html=1;rounded=0;entryX=0.5;entryY=1;entryDx=0;entryDy=0;exitX=0.5;exitY=0;exitDx=0;exitDy=0;" parent="1" source="WR3VaRAiDl1n3JYjEDmc-1" target="WR3VaRAiDl1n3JYjEDmc-2" edge="1"><mxGeometry width="160" relative="1" as="geometry"><mxPoint x="841" y="210" as="sourcePoint"/><mxPoint x="781" y="380" as="targetPoint"/></mxGeometry></mxCell><mxCell id="eiTDV5djJZwSkgyzMu8H-3" value="" style="endArrow=diamondThin;endFill=1;endSize=24;html=1;rounded=0;entryX=0;entryY=0.5;entryDx=0;entryDy=0;exitX=1;exitY=0.5;exitDx=0;exitDy=0;edgeStyle=orthogonalEdgeStyle;" parent="1" source="fjq0LEgCg1GbYbQw6aEK-2" target="WR3VaRAiDl1n3JYjEDmc-1" edge="1"><mxGeometry width="160" relative="1" as="geometry"><mxPoint x="601" y="400" as="sourcePoint"/><mxPoint x="761" y="400" as="targetPoint"/></mxGeometry></mxCell><mxCell id="5L2LxpOmjdD7S4U8k0r--1" value="&lt;p style=&quot;margin:0px;margin-top:4px;text-align:center;&quot;&gt;&lt;b&gt;ObjectPlacer&lt;/b&gt;&lt;/p&gt;&lt;hr size=&quot;1&quot;&gt;&lt;p style=&quot;margin:0px;margin-left:4px;&quot;&gt;+ LandScape_: IObjectFactory&lt;/p&gt;&lt;hr size=&quot;1&quot;&gt;&lt;p style=&quot;margin:0px;margin-left:4px;&quot;&gt;+ makeLandScape(): Type&lt;/p&gt;" style="verticalAlign=top;align=left;overflow=fill;fontSize=12;fontFamily=Helvetica;html=1;whiteSpace=wrap;" parent="1" vertex="1"><mxGeometry x="320" y="562" width="240" height="120" as="geometry"/></mxCell><mxCell id="5L2LxpOmjdD7S4U8k0r--3" value="&lt;p style=&quot;margin:0px;margin-top:4px;text-align:center;&quot;&gt;&lt;i&gt;&amp;lt;&amp;lt;Interface&amp;gt;&amp;gt;&lt;/i&gt;&lt;/p&gt;&lt;p style=&quot;margin:0px;margin-top:4px;text-align:center;&quot;&gt;&lt;i&gt;&lt;b&gt;IObjectFactory&lt;/b&gt;&lt;/i&gt;&lt;/p&gt;" style="verticalAlign=top;align=left;overflow=fill;fontSize=12;fontFamily=Helvetica;html=1;whiteSpace=wrap;" parent="1" vertex="1"><mxGeometry x="760" y="602" width="160" height="40" as="geometry"/></mxCell><mxCell id="5L2LxpOmjdD7S4U8k0r--5" value="&lt;p style=&quot;margin:0px;margin-top:4px;text-align:center;&quot;&gt;&lt;b&gt;LandScape&lt;/b&gt;&lt;/p&gt;&lt;hr size=&quot;1&quot;&gt;&lt;p style=&quot;margin:0px;margin-left:4px;&quot;&gt;+ make(): vector&amp;lt;Object&amp;gt;&lt;/p&gt;" style="verticalAlign=top;align=left;overflow=fill;fontSize=12;fontFamily=Helvetica;html=1;whiteSpace=wrap;" parent="1" vertex="1"><mxGeometry x="720" y="722" width="240" height="120" as="geometry"/></mxCell><mxCell id="5L2LxpOmjdD7S4U8k0r--6" value="" style="endArrow=block;dashed=1;endFill=0;endSize=12;html=1;rounded=0;exitX=0.5;exitY=0;exitDx=0;exitDy=0;entryX=0.5;entryY=1;entryDx=0;entryDy=0;edgeStyle=orthogonalEdgeStyle;" parent="1" source="5L2LxpOmjdD7S4U8k0r--5" target="5L2LxpOmjdD7S4U8k0r--3" edge="1"><mxGeometry width="160" relative="1" as="geometry"><mxPoint x="650" y="772" as="sourcePoint"/><mxPoint x="810" y="772" as="targetPoint"/></mxGeometry></mxCell><mxCell id="5L2LxpOmjdD7S4U8k0r--8" value="&lt;p style=&quot;margin:0px;margin-top:4px;text-align:center;&quot;&gt;&lt;i&gt;&amp;lt;&amp;lt;Interface&amp;gt;&amp;gt;&lt;/i&gt;&lt;/p&gt;&lt;p style=&quot;margin:0px;margin-top:4px;text-align:center;&quot;&gt;&lt;i&gt;&lt;b&gt;IObject&lt;/b&gt;&lt;/i&gt;&lt;/p&gt;" style="verticalAlign=top;align=left;overflow=fill;fontSize=12;fontFamily=Helvetica;html=1;whiteSpace=wrap;" parent="1" vertex="1"><mxGeometry x="761" y="440" width="160" height="40" as="geometry"/></mxCell><mxCell id="mEcnzMsyKF-RUhez551U-2" value="" style="endArrow=diamondThin;endFill=1;endSize=24;html=1;rounded=0;exitX=1;exitY=0.5;exitDx=0;exitDy=0;edgeStyle=orthogonalEdgeStyle;entryX=0;entryY=0.5;entryDx=0;entryDy=0;" parent="1" source="5L2LxpOmjdD7S4U8k0r--1" target="5L2LxpOmjdD7S4U8k0r--3" edge="1"><mxGeometry width="160" relative="1" as="geometry"><mxPoint x="850" y="572" as="sourcePoint"/><mxPoint x="750" y="622" as="targetPoint"/></mxGeometry></mxCell><mxCell id="MrxDg3bp4m-v4mWC0kUZ-2" value="" style="endArrow=open;endFill=1;endSize=12;html=1;rounded=0;exitX=1;exitY=0.5;exitDx=0;exitDy=0;entryX=1;entryY=0.5;entryDx=0;entryDy=0;edgeStyle=orthogonalEdgeStyle;" parent="1" source="5L2LxpOmjdD7S4U8k0r--5" target="5L2LxpOmjdD7S4U8k0r--8" edge="1"><mxGeometry width="160" relative="1" as="geometry"><mxPoint x="1541" y="741" as="sourcePoint"/><mxPoint x="1501" y="395" as="targetPoint"/><Array as="points"><mxPoint x="1041" y="782"/><mxPoint x="1041" y="460"/></Array></mxGeometry></mxCell><mxCell id="xnwADHMAtJ9FnTCeKCZT-1" value="&lt;p style=&quot;margin:0px;margin-top:4px;text-align:center;&quot;&gt;&lt;i&gt;&amp;lt;&amp;lt;Interface&amp;gt;&amp;gt;&lt;/i&gt;&lt;/p&gt;&lt;p style=&quot;margin:0px;margin-top:4px;text-align:center;&quot;&gt;&lt;i&gt;&lt;b&gt;IImage&lt;/b&gt;&lt;/i&gt;&lt;/p&gt;" style="verticalAlign=top;align=left;overflow=fill;fontSize=12;fontFamily=Helvetica;html=1;whiteSpace=wrap;" parent="1" vertex="1"><mxGeometry x="1041" y="80" width="160" height="40" as="geometry"/></mxCell><mxCell id="xnwADHMAtJ9FnTCeKCZT-2" value="" style="endArrow=open;endFill=1;endSize=12;html=1;rounded=0;entryX=0.5;entryY=1;entryDx=0;entryDy=0;exitX=1;exitY=0.5;exitDx=0;exitDy=0;edgeStyle=orthogonalEdgeStyle;" parent="1" source="WR3VaRAiDl1n3JYjEDmc-1" target="xnwADHMAtJ9FnTCeKCZT-1" edge="1"><mxGeometry width="160" relative="1" as="geometry"><mxPoint x="1041" y="280" as="sourcePoint"/><mxPoint x="971" y="400" as="targetPoint"/></mxGeometry></mxCell><mxCell id="ub0oCIxADx0sPoSHr6L_-1" value="&lt;p style=&quot;margin: 0px ; margin-top: 4px ; text-align: center&quot;&gt;&lt;i&gt;&amp;lt;&amp;lt;Interface&amp;gt;&amp;gt;&lt;/i&gt;&lt;/p&gt;&lt;p style=&quot;margin: 0px ; margin-top: 4px ; text-align: center&quot;&gt;&lt;i&gt;&lt;b&gt;IFileManager&lt;/b&gt;&lt;/i&gt;&lt;/p&gt;" style="verticalAlign=top;align=left;overflow=fill;fontSize=12;fontFamily=Helvetica;html=1;whiteSpace=wrap;" parent="1" vertex="1"><mxGeometry x="80" y="80" width="160" height="40" as="geometry"/></mxCell><mxCell id="ub0oCIxADx0sPoSHr6L_-3" value="" style="endArrow=open;endFill=1;endSize=12;html=1;rounded=0;entryX=0.5;entryY=1;entryDx=0;entryDy=0;edgeStyle=orthogonalEdgeStyle;" parent="1" target="ub0oCIxADx0sPoSHr6L_-1" edge="1"><mxGeometry width="160" relative="1" as="geometry"><mxPoint x="320" y="260" as="sourcePoint"/><mxPoint x="451" y="130" as="targetPoint"/></mxGeometry></mxCell></root></mxGraphModel></diagram><diagram id="4uJNxkg9737gK_eH-HrE" name="View"><mxGraphModel dx="851" dy="727" grid="1" gridSize="10" guides="1" tooltips="1" connect="1" arrows="1" fold="1" page="1" pageScale="1" pageWidth="1169" pageHeight="1654" math="0" shadow="0"><root><mxCell id="0"/><mxCell id="1" parent="0"/><mxCell id="E0xknwrJqtCkAGN8F9uU-2" value="MainWindow" style="swimlane;fontStyle=1;align=center;verticalAlign=top;childLayout=stackLayout;horizontal=1;startSize=26;horizontalStack=0;resizeParent=1;resizeParentMax=0;resizeLast=0;collapsible=1;marginBottom=0;whiteSpace=wrap;html=1;" parent="1" vertex="1"><mxGeometry x="170" y="242" width="160" height="176" as="geometry"/></mxCell><mxCell id="ACW99Sp11cNNKg3fBXP6-4" value="- gl_widget_: QOpenGLWidget" style="text;strokeColor=none;fillColor=none;align=left;verticalAlign=top;spacingLeft=4;spacingRight=4;overflow=hidden;rotatable=0;points=[[0,0.5],[1,0.5]];portConstraint=eastwest;whiteSpace=wrap;html=1;" parent="E0xknwrJqtCkAGN8F9uU-2" vertex="1"><mxGeometry y="26" width="160" height="44" as="geometry"/></mxCell><mxCell id="fc6I1EtiGrr7Wr4dShFB-3" value="-&amp;nbsp;object_table_: QTableWidget" style="text;strokeColor=none;fillColor=none;align=left;verticalAlign=top;spacingLeft=4;spacingRight=4;overflow=hidden;rotatable=0;points=[[0,0.5],[1,0.5]];portConstraint=eastwest;whiteSpace=wrap;html=1;" parent="E0xknwrJqtCkAGN8F9uU-2" vertex="1"><mxGeometry y="70" width="160" height="44" as="geometry"/></mxCell><mxCell id="UxZA9AHNOR_dmNoE3u7T-8" value="- state_manager_: StateManager" style="text;strokeColor=none;fillColor=none;align=left;verticalAlign=top;spacingLeft=4;spacingRight=4;overflow=hidden;rotatable=0;points=[[0,0.5],[1,0.5]];portConstraint=eastwest;whiteSpace=wrap;html=1;" parent="E0xknwrJqtCkAGN8F9uU-2" vertex="1"><mxGeometry y="114" width="160" height="46" as="geometry"/></mxCell><mxCell id="ACW99Sp11cNNKg3fBXP6-5" value="" style="line;strokeWidth=1;fillColor=none;align=left;verticalAlign=middle;spacingTop=-1;spacingLeft=3;spacingRight=3;rotatable=0;labelPosition=right;points=[];portConstraint=eastwest;strokeColor=inherit;" parent="E0xknwrJqtCkAGN8F9uU-2" vertex="1"><mxGeometry y="160" width="160" height="16" as="geometry"/></mxCell><mxCell id="E0xknwrJqtCkAGN8F9uU-10" value="ObjectGLWidget" style="swimlane;fontStyle=1;align=center;verticalAlign=top;childLayout=stackLayout;horizontal=1;startSize=26;horizontalStack=0;resizeParent=1;resizeParentMax=0;resizeLast=0;collapsible=1;marginBottom=0;whiteSpace=wrap;html=1;" parent="1" vertex="1"><mxGeometry x="170" y="80" width="160" height="110" as="geometry"/></mxCell><mxCell id="GxUnUpW4Zx2TuA_qhafc-4" value="+ DrawObject(object: IObject): void" style="text;strokeColor=none;fillColor=none;align=left;verticalAlign=top;spacingLeft=4;spacingRight=4;overflow=hidden;rotatable=0;points=[[0,0.5],[1,0.5]];portConstraint=eastwest;whiteSpace=wrap;html=1;" parent="E0xknwrJqtCkAGN8F9uU-10" vertex="1"><mxGeometry y="26" width="160" height="44" as="geometry"/></mxCell><mxCell id="2ypn3XLRh_DCzkCgD5uk-1" value="+ DrawObjects(objects: vector&amp;lt;IObject&amp;gt;): void" style="text;strokeColor=none;fillColor=none;align=left;verticalAlign=top;spacingLeft=4;spacingRight=4;overflow=hidden;rotatable=0;points=[[0,0.5],[1,0.5]];portConstraint=eastwest;whiteSpace=wrap;html=1;" parent="E0xknwrJqtCkAGN8F9uU-10" vertex="1"><mxGeometry y="70" width="160" height="40" as="geometry"/></mxCell><mxCell id="5s7wKgU5cXgXmNw6V4r6-2" value="&lt;p style=&quot;margin:0px;margin-top:4px;text-align:center;&quot;&gt;&lt;i&gt;&amp;lt;&amp;lt;Interface&amp;gt;&amp;gt;&lt;/i&gt;&lt;/p&gt;&lt;p style=&quot;margin:0px;margin-top:4px;text-align:center;&quot;&gt;&lt;i&gt;&lt;b&gt;QTableWidget&lt;/b&gt;&lt;/i&gt;&lt;/p&gt;" style="verticalAlign=top;align=left;overflow=fill;fontSize=12;fontFamily=Helvetica;html=1;whiteSpace=wrap;" parent="1" vertex="1"><mxGeometry x="155" y="610" width="190" height="40" as="geometry"/></mxCell><mxCell id="5s7wKgU5cXgXmNw6V4r6-3" value="Extends" style="endArrow=block;endSize=16;endFill=0;html=1;rounded=0;" parent="1" source="LXHH9qgzBwEDbcKBehkR-1" target="5s7wKgU5cXgXmNw6V4r6-2" edge="1"><mxGeometry width="160" relative="1" as="geometry"><mxPoint x="540" y="284.2857142857142" as="sourcePoint"/><mxPoint x="533.3098591549297" y="610" as="targetPoint"/></mxGeometry></mxCell><mxCell id="LXHH9qgzBwEDbcKBehkR-1" value="ObjectTableWidget" style="swimlane;fontStyle=1;align=center;verticalAlign=top;childLayout=stackLayout;horizontal=1;startSize=26;horizontalStack=0;resizeParent=1;resizeParentMax=0;resizeLast=0;collapsible=1;marginBottom=0;whiteSpace=wrap;html=1;" parent="1" vertex="1"><mxGeometry x="480" y="562" width="160" height="136" as="geometry"/></mxCell><mxCell id="LXHH9qgzBwEDbcKBehkR-3" value="" style="line;strokeWidth=1;fillColor=none;align=left;verticalAlign=middle;spacingTop=-1;spacingLeft=3;spacingRight=3;rotatable=0;labelPosition=right;points=[];portConstraint=eastwest;strokeColor=inherit;" parent="LXHH9qgzBwEDbcKBehkR-1" vertex="1"><mxGeometry y="26" width="160" height="8" as="geometry"/></mxCell><mxCell id="LXHH9qgzBwEDbcKBehkR-4" value="+ setItem(row:int, column:int, item: IObject): void" style="text;strokeColor=none;fillColor=none;align=left;verticalAlign=top;spacingLeft=4;spacingRight=4;overflow=hidden;rotatable=0;points=[[0,0.5],[1,0.5]];portConstraint=eastwest;whiteSpace=wrap;html=1;" parent="LXHH9qgzBwEDbcKBehkR-1" vertex="1"><mxGeometry y="34" width="160" height="50" as="geometry"/></mxCell><mxCell id="_EIBD6RzDpMf5W8yDEjv-2" value="+ addItemsOnPush(): void" style="text;strokeColor=none;fillColor=none;align=left;verticalAlign=top;spacingLeft=4;spacingRight=4;overflow=hidden;rotatable=0;points=[[0,0.5],[1,0.5]];portConstraint=eastwest;whiteSpace=wrap;html=1;" parent="LXHH9qgzBwEDbcKBehkR-1" vertex="1"><mxGeometry y="84" width="160" height="26" as="geometry"/></mxCell><mxCell id="_EIBD6RzDpMf5W8yDEjv-3" value="+ deleteItemOnPush(): void" style="text;strokeColor=none;fillColor=none;align=left;verticalAlign=top;spacingLeft=4;spacingRight=4;overflow=hidden;rotatable=0;points=[[0,0.5],[1,0.5]];portConstraint=eastwest;whiteSpace=wrap;html=1;" parent="LXHH9qgzBwEDbcKBehkR-1" vertex="1"><mxGeometry y="110" width="160" height="26" as="geometry"/></mxCell><mxCell id="nYnqv1RhECqrbea32HzE-2" value="&amp;lt;&amp;lt;interface&amp;gt;&amp;gt;&lt;br&gt;IOperation" style="swimlane;fontStyle=1;align=center;verticalAlign=top;childLayout=stackLayout;horizontal=1;startSize=44;horizontalStack=0;resizeParent=1;resizeParentMax=0;resizeLast=0;collapsible=1;marginBottom=0;whiteSpace=wrap;html=1;" parent="1" vertex="1"><mxGeometry x="840" y="546" width="160" height="104" as="geometry"/></mxCell><mxCell id="nYnqv1RhECqrbea32HzE-4" value="" style="line;strokeWidth=1;fillColor=none;align=left;verticalAlign=middle;spacingTop=-1;spacingLeft=3;spacingRight=3;rotatable=0;labelPosition=right;points=[];portConstraint=eastwest;strokeColor=inherit;" parent="nYnqv1RhECqrbea32HzE-2" vertex="1"><mxGeometry y="44" width="160" height="8" as="geometry"/></mxCell><mxCell id="nYnqv1RhECqrbea32HzE-6" value="+ undo(): void" style="text;strokeColor=none;fillColor=none;align=left;verticalAlign=top;spacingLeft=4;spacingRight=4;overflow=hidden;rotatable=0;points=[[0,0.5],[1,0.5]];portConstraint=eastwest;whiteSpace=wrap;html=1;" parent="nYnqv1RhECqrbea32HzE-2" vertex="1"><mxGeometry y="52" width="160" height="26" as="geometry"/></mxCell><mxCell id="nYnqv1RhECqrbea32HzE-5" value="+ do(): void" style="text;strokeColor=none;fillColor=none;align=left;verticalAlign=top;spacingLeft=4;spacingRight=4;overflow=hidden;rotatable=0;points=[[0,0.5],[1,0.5]];portConstraint=eastwest;whiteSpace=wrap;html=1;" parent="nYnqv1RhECqrbea32HzE-2" vertex="1"><mxGeometry y="78" width="160" height="26" as="geometry"/></mxCell><mxCell id="nYnqv1RhECqrbea32HzE-7" value="OperationManager" style="swimlane;fontStyle=1;align=center;verticalAlign=top;childLayout=stackLayout;horizontal=1;startSize=26;horizontalStack=0;resizeParent=1;resizeParentMax=0;resizeLast=0;collapsible=1;marginBottom=0;whiteSpace=wrap;html=1;" parent="1" vertex="1"><mxGeometry x="840" y="245" width="160" height="170" as="geometry"/></mxCell><mxCell id="nYnqv1RhECqrbea32HzE-8" value="- operations_: stack&amp;lt;IOperation&amp;gt;" style="text;strokeColor=none;fillColor=none;align=left;verticalAlign=top;spacingLeft=4;spacingRight=4;overflow=hidden;rotatable=0;points=[[0,0.5],[1,0.5]];portConstraint=eastwest;whiteSpace=wrap;html=1;" parent="nYnqv1RhECqrbea32HzE-7" vertex="1"><mxGeometry y="26" width="160" height="44" as="geometry"/></mxCell><mxCell id="nYnqv1RhECqrbea32HzE-9" value="" style="line;strokeWidth=1;fillColor=none;align=left;verticalAlign=middle;spacingTop=-1;spacingLeft=3;spacingRight=3;rotatable=0;labelPosition=right;points=[];portConstraint=eastwest;strokeColor=inherit;" parent="nYnqv1RhECqrbea32HzE-7" vertex="1"><mxGeometry y="70" width="160" height="8" as="geometry"/></mxCell><mxCell id="nYnqv1RhECqrbea32HzE-10" value="+ push_operation(operation&lt;br&gt;:IOperation): void" style="text;strokeColor=none;fillColor=none;align=left;verticalAlign=top;spacingLeft=4;spacingRight=4;overflow=hidden;rotatable=0;points=[[0,0.5],[1,0.5]];portConstraint=eastwest;whiteSpace=wrap;html=1;" parent="nYnqv1RhECqrbea32HzE-7" vertex="1"><mxGeometry y="78" width="160" height="42" as="geometry"/></mxCell><mxCell id="uxwvBRQCrMAlWaygALZF-10" value="+ pop_operation(): IOperation" style="text;strokeColor=none;fillColor=none;align=left;verticalAlign=top;spacingLeft=4;spacingRight=4;overflow=hidden;rotatable=0;points=[[0,0.5],[1,0.5]];portConstraint=eastwest;whiteSpace=wrap;html=1;" parent="nYnqv1RhECqrbea32HzE-7" vertex="1"><mxGeometry y="120" width="160" height="50" as="geometry"/></mxCell><mxCell id="uxwvBRQCrMAlWaygALZF-1" value="AddObjectOperation" style="swimlane;fontStyle=1;align=center;verticalAlign=top;childLayout=stackLayout;horizontal=1;startSize=26;horizontalStack=0;resizeParent=1;resizeParentMax=0;resizeLast=0;collapsible=1;marginBottom=0;whiteSpace=wrap;html=1;" parent="1" vertex="1"><mxGeometry x="480" y="768" width="160" height="254" as="geometry"/></mxCell><mxCell id="1l4zu_6U2HC8lAQ1K7yM-4" value="- object_: IObject" style="text;strokeColor=none;fillColor=none;align=left;verticalAlign=top;spacingLeft=4;spacingRight=4;overflow=hidden;rotatable=0;points=[[0,0.5],[1,0.5]];portConstraint=eastwest;whiteSpace=wrap;html=1;" parent="uxwvBRQCrMAlWaygALZF-1" vertex="1"><mxGeometry y="26" width="160" height="26" as="geometry"/></mxCell><mxCell id="1l4zu_6U2HC8lAQ1K7yM-5" value="- row_: int" style="text;strokeColor=none;fillColor=none;align=left;verticalAlign=top;spacingLeft=4;spacingRight=4;overflow=hidden;rotatable=0;points=[[0,0.5],[1,0.5]];portConstraint=eastwest;whiteSpace=wrap;html=1;" parent="uxwvBRQCrMAlWaygALZF-1" vertex="1"><mxGeometry y="52" width="160" height="26" as="geometry"/></mxCell><mxCell id="1l4zu_6U2HC8lAQ1K7yM-6" value="- column_: int" style="text;strokeColor=none;fillColor=none;align=left;verticalAlign=top;spacingLeft=4;spacingRight=4;overflow=hidden;rotatable=0;points=[[0,0.5],[1,0.5]];portConstraint=eastwest;whiteSpace=wrap;html=1;" parent="uxwvBRQCrMAlWaygALZF-1" vertex="1"><mxGeometry y="78" width="160" height="26" as="geometry"/></mxCell><mxCell id="1l4zu_6U2HC8lAQ1K7yM-8" value="- object_table_: ObjectTableWidget&amp;nbsp;" style="text;strokeColor=none;fillColor=none;align=left;verticalAlign=top;spacingLeft=4;spacingRight=4;overflow=hidden;rotatable=0;points=[[0,0.5],[1,0.5]];portConstraint=eastwest;whiteSpace=wrap;html=1;" parent="uxwvBRQCrMAlWaygALZF-1" vertex="1"><mxGeometry y="104" width="160" height="36" as="geometry"/></mxCell><mxCell id="uxwvBRQCrMAlWaygALZF-3" value="" style="line;strokeWidth=1;fillColor=none;align=left;verticalAlign=middle;spacingTop=-1;spacingLeft=3;spacingRight=3;rotatable=0;labelPosition=right;points=[];portConstraint=eastwest;strokeColor=inherit;" parent="uxwvBRQCrMAlWaygALZF-1" vertex="1"><mxGeometry y="140" width="160" height="34" as="geometry"/></mxCell><mxCell id="E3btq9JW_PXGZ192wilw-3" value="+ &amp;lt;&amp;lt;Create&amp;gt;&amp;gt; DeleteObjectOperation(object: IObject, row: int, column: int, object_table: ObjectTableWidget)" style="text;strokeColor=none;fillColor=none;align=left;verticalAlign=top;spacingLeft=4;spacingRight=4;overflow=hidden;rotatable=0;points=[[0,0.5],[1,0.5]];portConstraint=eastwest;whiteSpace=wrap;html=1;" parent="uxwvBRQCrMAlWaygALZF-1" vertex="1"><mxGeometry y="174" width="160" height="80" as="geometry"/></mxCell><mxCell id="uxwvBRQCrMAlWaygALZF-5" value="Extends" style="endArrow=block;endSize=16;endFill=0;html=1;rounded=0;" parent="1" source="uxwvBRQCrMAlWaygALZF-1" target="nYnqv1RhECqrbea32HzE-2" edge="1"><mxGeometry width="160" relative="1" as="geometry"><mxPoint x="825" y="530" as="sourcePoint"/><mxPoint x="355" y="610" as="targetPoint"/></mxGeometry></mxCell><mxCell id="uxwvBRQCrMAlWaygALZF-6" value="DeleteObjectOperation" style="swimlane;fontStyle=1;align=center;verticalAlign=top;childLayout=stackLayout;horizontal=1;startSize=26;horizontalStack=0;resizeParent=1;resizeParentMax=0;resizeLast=0;collapsible=1;marginBottom=0;whiteSpace=wrap;html=1;" parent="1" vertex="1"><mxGeometry x="810" y="772" width="160" height="250" as="geometry"/></mxCell><mxCell id="1l4zu_6U2HC8lAQ1K7yM-1" value="- object_: IObject" style="text;strokeColor=none;fillColor=none;align=left;verticalAlign=top;spacingLeft=4;spacingRight=4;overflow=hidden;rotatable=0;points=[[0,0.5],[1,0.5]];portConstraint=eastwest;whiteSpace=wrap;html=1;" parent="uxwvBRQCrMAlWaygALZF-6" vertex="1"><mxGeometry y="26" width="160" height="26" as="geometry"/></mxCell><mxCell id="1l4zu_6U2HC8lAQ1K7yM-2" value="- row_: int" style="text;strokeColor=none;fillColor=none;align=left;verticalAlign=top;spacingLeft=4;spacingRight=4;overflow=hidden;rotatable=0;points=[[0,0.5],[1,0.5]];portConstraint=eastwest;whiteSpace=wrap;html=1;" parent="uxwvBRQCrMAlWaygALZF-6" vertex="1"><mxGeometry y="52" width="160" height="26" as="geometry"/></mxCell><mxCell id="1l4zu_6U2HC8lAQ1K7yM-3" value="- column_: int" style="text;strokeColor=none;fillColor=none;align=left;verticalAlign=top;spacingLeft=4;spacingRight=4;overflow=hidden;rotatable=0;points=[[0,0.5],[1,0.5]];portConstraint=eastwest;whiteSpace=wrap;html=1;" parent="uxwvBRQCrMAlWaygALZF-6" vertex="1"><mxGeometry y="78" width="160" height="26" as="geometry"/></mxCell><mxCell id="1l4zu_6U2HC8lAQ1K7yM-10" value="- object_table_: ObjectTableWidget" style="text;strokeColor=none;fillColor=none;align=left;verticalAlign=top;spacingLeft=4;spacingRight=4;overflow=hidden;rotatable=0;points=[[0,0.5],[1,0.5]];portConstraint=eastwest;whiteSpace=wrap;html=1;" parent="uxwvBRQCrMAlWaygALZF-6" vertex="1"><mxGeometry y="104" width="160" height="36" as="geometry"/></mxCell><mxCell id="uxwvBRQCrMAlWaygALZF-7" value="" style="line;strokeWidth=1;fillColor=none;align=left;verticalAlign=middle;spacingTop=-1;spacingLeft=3;spacingRight=3;rotatable=0;labelPosition=right;points=[];portConstraint=eastwest;strokeColor=inherit;" parent="uxwvBRQCrMAlWaygALZF-6" vertex="1"><mxGeometry y="140" width="160" height="30" as="geometry"/></mxCell><mxCell id="E3btq9JW_PXGZ192wilw-2" value="+ &amp;lt;&amp;lt;Create&amp;gt;&amp;gt; DeleteObjectOperation(object: IObject, row: int, column: int, object_table: ObjectTableWidget)" style="text;strokeColor=none;fillColor=none;align=left;verticalAlign=top;spacingLeft=4;spacingRight=4;overflow=hidden;rotatable=0;points=[[0,0.5],[1,0.5]];portConstraint=eastwest;whiteSpace=wrap;html=1;" parent="uxwvBRQCrMAlWaygALZF-6" vertex="1"><mxGeometry y="170" width="160" height="80" as="geometry"/></mxCell><mxCell id="uxwvBRQCrMAlWaygALZF-8" value="Extends" style="endArrow=block;endSize=16;endFill=0;html=1;rounded=0;" parent="1" source="uxwvBRQCrMAlWaygALZF-6" target="nYnqv1RhECqrbea32HzE-2" edge="1"><mxGeometry width="160" relative="1" as="geometry"><mxPoint x="965" y="490" as="sourcePoint"/><mxPoint x="965" y="557" as="targetPoint"/></mxGeometry></mxCell><mxCell id="uxwvBRQCrMAlWaygALZF-11" value="StateManager" style="swimlane;fontStyle=1;align=center;verticalAlign=top;childLayout=stackLayout;horizontal=1;startSize=26;horizontalStack=0;resizeParent=1;resizeParentMax=0;resizeLast=0;collapsible=1;marginBottom=0;whiteSpace=wrap;html=1;" parent="1" vertex="1"><mxGeometry x="480" y="190" width="170" height="280" as="geometry"/></mxCell><mxCell id="1l4zu_6U2HC8lAQ1K7yM-9" value="- object_table_: ObjectTableWidget" style="text;strokeColor=none;fillColor=none;align=left;verticalAlign=top;spacingLeft=4;spacingRight=4;overflow=hidden;rotatable=0;points=[[0,0.5],[1,0.5]];portConstraint=eastwest;whiteSpace=wrap;html=1;" parent="uxwvBRQCrMAlWaygALZF-11" vertex="1"><mxGeometry y="26" width="170" height="44" as="geometry"/></mxCell><mxCell id="uxwvBRQCrMAlWaygALZF-12" value="- operation_manager_: OpearationManager&lt;br&gt;" style="text;strokeColor=none;fillColor=none;align=left;verticalAlign=top;spacingLeft=4;spacingRight=4;overflow=hidden;rotatable=0;points=[[0,0.5],[1,0.5]];portConstraint=eastwest;whiteSpace=wrap;html=1;" parent="uxwvBRQCrMAlWaygALZF-11" vertex="1"><mxGeometry y="70" width="170" height="44" as="geometry"/></mxCell><mxCell id="uxwvBRQCrMAlWaygALZF-13" value="" style="line;strokeWidth=1;fillColor=none;align=left;verticalAlign=middle;spacingTop=-1;spacingLeft=3;spacingRight=3;rotatable=0;labelPosition=right;points=[];portConstraint=eastwest;strokeColor=inherit;" parent="uxwvBRQCrMAlWaygALZF-11" vertex="1"><mxGeometry y="114" width="170" height="8" as="geometry"/></mxCell><mxCell id="uxwvBRQCrMAlWaygALZF-15" value="+ DeleteObjectOnPush():void" style="text;strokeColor=none;fillColor=none;align=left;verticalAlign=top;spacingLeft=4;spacingRight=4;overflow=hidden;rotatable=0;points=[[0,0.5],[1,0.5]];portConstraint=eastwest;whiteSpace=wrap;html=1;" parent="uxwvBRQCrMAlWaygALZF-11" vertex="1"><mxGeometry y="122" width="170" height="32" as="geometry"/></mxCell><mxCell id="uxwvBRQCrMAlWaygALZF-14" value="+ AddObjectOnPush(): void" style="text;strokeColor=none;fillColor=none;align=left;verticalAlign=top;spacingLeft=4;spacingRight=4;overflow=hidden;rotatable=0;points=[[0,0.5],[1,0.5]];portConstraint=eastwest;whiteSpace=wrap;html=1;" parent="uxwvBRQCrMAlWaygALZF-11" vertex="1"><mxGeometry y="154" width="170" height="30" as="geometry"/></mxCell><mxCell id="E3btq9JW_PXGZ192wilw-4" value="+ &amp;lt;&amp;lt;Create&amp;gt;&amp;gt; StateManager(object_table: ObjectTableWidget, operation_manager: OperationManager)" style="text;strokeColor=none;fillColor=none;align=left;verticalAlign=top;spacingLeft=4;spacingRight=4;overflow=hidden;rotatable=0;points=[[0,0.5],[1,0.5]];portConstraint=eastwest;whiteSpace=wrap;html=1;" parent="uxwvBRQCrMAlWaygALZF-11" vertex="1"><mxGeometry y="184" width="170" height="96" as="geometry"/></mxCell><mxCell id="UxZA9AHNOR_dmNoE3u7T-1" value="" style="endArrow=diamondThin;endFill=1;endSize=24;html=1;rounded=0;" parent="1" source="5s7wKgU5cXgXmNw6V4r6-2" target="E0xknwrJqtCkAGN8F9uU-2" edge="1"><mxGeometry width="160" relative="1" as="geometry"><mxPoint x="255" y="440" as="sourcePoint"/><mxPoint x="415" y="440" as="targetPoint"/></mxGeometry></mxCell><mxCell id="UxZA9AHNOR_dmNoE3u7T-2" value="" style="endArrow=diamondThin;endFill=0;endSize=24;html=1;rounded=0;" parent="1" source="LXHH9qgzBwEDbcKBehkR-1" target="uxwvBRQCrMAlWaygALZF-1" edge="1"><mxGeometry width="160" relative="1" as="geometry"><mxPoint x="415" y="680" as="sourcePoint"/><mxPoint x="575" y="680" as="targetPoint"/></mxGeometry></mxCell><mxCell id="UxZA9AHNOR_dmNoE3u7T-3" value="" style="endArrow=diamondThin;endFill=0;endSize=24;html=1;rounded=0;" parent="1" source="LXHH9qgzBwEDbcKBehkR-1" target="uxwvBRQCrMAlWaygALZF-6" edge="1"><mxGeometry width="160" relative="1" as="geometry"><mxPoint x="525" y="640" as="sourcePoint"/><mxPoint x="620" y="627" as="targetPoint"/></mxGeometry></mxCell><mxCell id="UxZA9AHNOR_dmNoE3u7T-4" value="" style="endArrow=diamondThin;endFill=1;endSize=24;html=1;rounded=0;" parent="1" source="nYnqv1RhECqrbea32HzE-2" target="nYnqv1RhECqrbea32HzE-7" edge="1"><mxGeometry width="160" relative="1" as="geometry"><mxPoint x="355" y="610" as="sourcePoint"/><mxPoint x="355" y="260" as="targetPoint"/></mxGeometry></mxCell><mxCell id="UxZA9AHNOR_dmNoE3u7T-5" value="" style="endArrow=diamondThin;endFill=1;endSize=24;html=1;rounded=0;" parent="1" source="nYnqv1RhECqrbea32HzE-7" target="uxwvBRQCrMAlWaygALZF-11" edge="1"><mxGeometry width="160" relative="1" as="geometry"><mxPoint x="365" y="620" as="sourcePoint"/><mxPoint x="365" y="270" as="targetPoint"/></mxGeometry></mxCell><mxCell id="UxZA9AHNOR_dmNoE3u7T-6" value="" style="endArrow=diamondThin;endFill=0;endSize=24;html=1;rounded=0;" parent="1" source="LXHH9qgzBwEDbcKBehkR-1" target="uxwvBRQCrMAlWaygALZF-11" edge="1"><mxGeometry width="160" relative="1" as="geometry"><mxPoint x="573" y="556" as="sourcePoint"/><mxPoint x="620" y="630" as="targetPoint"/></mxGeometry></mxCell><mxCell id="UxZA9AHNOR_dmNoE3u7T-7" value="" style="endArrow=diamondThin;endFill=1;endSize=24;html=1;rounded=0;" parent="1" source="uxwvBRQCrMAlWaygALZF-11" target="E0xknwrJqtCkAGN8F9uU-2" edge="1"><mxGeometry width="160" relative="1" as="geometry"><mxPoint x="355" y="610" as="sourcePoint"/><mxPoint x="355" y="380" as="targetPoint"/></mxGeometry></mxCell><mxCell id="GxUnUpW4Zx2TuA_qhafc-1" value="&lt;p style=&quot;margin:0px;margin-top:4px;text-align:center;&quot;&gt;&lt;i&gt;&amp;lt;&amp;lt;Interface&amp;gt;&amp;gt;&lt;/i&gt;&lt;/p&gt;&lt;p style=&quot;margin:0px;margin-top:4px;text-align:center;&quot;&gt;&lt;i&gt;&lt;b&gt;QOpenGLWidget&lt;/b&gt;&lt;/i&gt;&lt;/p&gt;" style="verticalAlign=top;align=left;overflow=fill;fontSize=12;fontFamily=Helvetica;html=1;whiteSpace=wrap;" parent="1" vertex="1"><mxGeometry x="480" y="115" width="190" height="40" as="geometry"/></mxCell><mxCell id="GxUnUpW4Zx2TuA_qhafc-2" value="" style="endArrow=diamondThin;endFill=1;endSize=24;html=1;rounded=0;" parent="1" source="E0xknwrJqtCkAGN8F9uU-10" target="E0xknwrJqtCkAGN8F9uU-2" edge="1"><mxGeometry width="160" relative="1" as="geometry"><mxPoint x="495" y="164" as="sourcePoint"/><mxPoint x="425" y="150" as="targetPoint"/></mxGeometry></mxCell><mxCell id="GxUnUpW4Zx2TuA_qhafc-3" value="Extends" style="endArrow=block;endSize=16;endFill=0;html=1;rounded=0;" parent="1" source="E0xknwrJqtCkAGN8F9uU-10" target="GxUnUpW4Zx2TuA_qhafc-1" edge="1"><mxGeometry width="160" relative="1" as="geometry"><mxPoint x="1025" y="246" as="sourcePoint"/><mxPoint x="1036" y="140" as="targetPoint"/></mxGeometry></mxCell></root></mxGraphModel></diagram><diagram id="bsdWH7dnZxSQvib-KoD_" name="App"><mxGraphModel dx="635" dy="727" grid="1" gridSize="10" guides="1" tooltips="1" connect="1" arrows="1" fold="1" page="1" pageScale="1" pageWidth="1169" pageHeight="1654" math="0" shadow="0"><root><mxCell id="0"/><mxCell id="1" parent="0"/><mxCell id="ZkJ8oH1-p-AvXlJXo79j-1" value="&lt;p style=&quot;margin:0px;margin-top:4px;text-align:center;&quot;&gt;&lt;b&gt;App&lt;/b&gt;&lt;/p&gt;&lt;hr size=&quot;1&quot;&gt;&lt;p style=&quot;margin:0px;margin-left:4px;&quot;&gt;+ View_: Type&lt;/p&gt;&lt;p style=&quot;margin:0px;margin-left:4px;&quot;&gt;+ VoxelEngine&lt;br&gt;&lt;/p&gt;&lt;hr size=&quot;1&quot;&gt;&lt;p style=&quot;margin:0px;margin-left:4px;&quot;&gt;+ init(): Type&lt;/p&gt;&lt;p style=&quot;margin:0px;margin-left:4px;&quot;&gt;+ defaultScene(): void&lt;/p&gt;" style="verticalAlign=top;align=left;overflow=fill;fontSize=12;fontFamily=Helvetica;html=1;" parent="1" vertex="1"><mxGeometry x="40" y="80" width="240" height="240" as="geometry"/></mxCell><mxCell id="XQVdyWZXWepGt70af3AC-1" value="&lt;p style=&quot;margin:0px;margin-top:4px;text-align:center;&quot;&gt;&lt;b&gt;View&lt;/b&gt;&lt;/p&gt;&lt;hr size=&quot;1&quot;&gt;&lt;p style=&quot;margin:0px;margin-left:4px;&quot;&gt;&lt;br&gt;&lt;/p&gt;&lt;hr size=&quot;1&quot;&gt;&lt;p style=&quot;margin:0px;margin-left:4px;&quot;&gt;+ createObject(): Type&lt;/p&gt;&lt;p style=&quot;margin:0px;margin-left:4px;&quot;&gt;+ updateView()&lt;/p&gt;" style="verticalAlign=top;align=left;overflow=fill;fontSize=12;fontFamily=Helvetica;html=1;" parent="1" vertex="1"><mxGeometry x="560" y="120" width="200" height="160" as="geometry"/></mxCell><mxCell id="folUIZdP1qX9zxc139Gf-1" value="" style="endArrow=diamondThin;endFill=1;endSize=24;html=1;rounded=0;exitX=0;exitY=0.5;exitDx=0;exitDy=0;entryX=1;entryY=0.5;entryDx=0;entryDy=0;edgeStyle=orthogonalEdgeStyle;" parent="1" source="XQVdyWZXWepGt70af3AC-1" target="ZkJ8oH1-p-AvXlJXo79j-1" edge="1"><mxGeometry width="160" relative="1" as="geometry"><mxPoint x="340" y="370" as="sourcePoint"/><mxPoint x="500" y="370" as="targetPoint"/></mxGeometry></mxCell><mxCell id="folUIZdP1qX9zxc139Gf-3" value="&lt;p style=&quot;margin:0px;margin-top:4px;text-align:center;&quot;&gt;&lt;b&gt;VoxelEngine&lt;/b&gt;&lt;/p&gt;&lt;hr size=&quot;1&quot;&gt;&lt;p style=&quot;margin: 0px 0px 0px 4px;&quot;&gt;+ Camera_: ICamera&lt;/p&gt;&lt;p style=&quot;margin: 0px 0px 0px 4px;&quot;&gt;+ FileManager_: IFileManager&lt;/p&gt;&lt;p style=&quot;margin: 0px 0px 0px 4px;&quot;&gt;+ ObjectStorage_: IStorage&lt;/p&gt;&lt;p style=&quot;margin: 0px 0px 0px 4px;&quot;&gt;+ Scene_: Scene&lt;/p&gt;&lt;p style=&quot;margin: 0px 0px 0px 4px;&quot;&gt;+ ObjectPlacer_: ObjectPlacer&lt;/p&gt;&lt;hr size=&quot;1&quot;&gt;&lt;p style=&quot;margin:0px;margin-left:4px;&quot;&gt;+ addObject(): Type&lt;/p&gt;&lt;p style=&quot;margin:0px;margin-left:4px;&quot;&gt;+ deleteObject(): Type&lt;br&gt;&lt;/p&gt;&lt;p style=&quot;margin:0px;margin-left:4px;&quot;&gt;+ editObject(VoxelId): IObject&amp;amp;&lt;br&gt;&lt;/p&gt;&lt;p style=&quot;margin:0px;margin-left:4px;&quot;&gt;+ readStorage(): ObjectStorage&amp;amp;&lt;/p&gt;&lt;p style=&quot;margin:0px;margin-left:4px;&quot;&gt;&lt;br&gt;&lt;/p&gt;&lt;p style=&quot;margin:0px;margin-left:4px;&quot;&gt;+ defaultScene(): // Отрисовка ландшафта&lt;/p&gt;&lt;p style=&quot;margin:0px;margin-left:4px;&quot;&gt;+ previewScene(): IImage&lt;/p&gt;&lt;p style=&quot;margin:0px;margin-left:4px;&quot;&gt;+ generateScene(): void&lt;/p&gt;" style="verticalAlign=top;align=left;overflow=fill;fontSize=12;fontFamily=Helvetica;html=1;" parent="1" vertex="1"><mxGeometry x="240" y="400" width="280" height="240" as="geometry"/></mxCell><mxCell id="folUIZdP1qX9zxc139Gf-4" value="VoxelId: LandScape" style="text;html=1;align=center;verticalAlign=middle;resizable=0;points=[];autosize=1;strokeColor=none;fillColor=none;" parent="1" vertex="1"><mxGeometry x="600" y="400" width="130" height="30" as="geometry"/></mxCell><mxCell id="folUIZdP1qX9zxc139Gf-6" value="При нажатии кнопки gui addObject отправляется сигнал/вызов &lt;br&gt;в VoxelEngine и StateManager а при ландшафте вызывается &lt;br&gt;defaultScene в котором дергается StateManager пока через сигнал&amp;nbsp;" style="text;html=1;align=center;verticalAlign=middle;resizable=0;points=[];autosize=1;strokeColor=none;fillColor=none;" parent="1" vertex="1"><mxGeometry x="600" y="440" width="400" height="60" as="geometry"/></mxCell><mxCell id="folUIZdP1qX9zxc139Gf-7" value="" style="endArrow=diamondThin;endFill=1;endSize=24;html=1;rounded=0;entryX=0.5;entryY=1;entryDx=0;entryDy=0;exitX=0;exitY=0.5;exitDx=0;exitDy=0;edgeStyle=orthogonalEdgeStyle;" parent="1" source="folUIZdP1qX9zxc139Gf-3" target="ZkJ8oH1-p-AvXlJXo79j-1" edge="1"><mxGeometry width="160" relative="1" as="geometry"><mxPoint x="370" y="350" as="sourcePoint"/><mxPoint x="530" y="350" as="targetPoint"/></mxGeometry></mxCell></root></mxGraphModel></diagram></mxfile>